<svg xmlns="http://www.w3.org/2000/svg" viewBox="0 0 93.56 141.05"><defs><style>.cls-1{fill:#525252;}</style></defs><g id="레이어_2" data-name="레이어 2"><g id="Layer_1" data-name="Layer 1"><path class="cls-1" d="M22.89,51.15h-8v-20a31.18,31.18,0,1,1,62.35,0V50.5h-8V31.18a23.18,23.18,0,1,0-46.35,0Z"/><path class="cls-1" d="M93.44,68.72c-.06-3.71-.13-7.55-.13-11.51a4,4,0,0,0-2.63-3.76A290.28,290.28,0,0,1,64.11,41.73c-5.09-2.45-10.36-5-15.73-7.34a4,4,0,0,0-3.2,0c-5.38,2.35-10.64,4.89-15.73,7.34C21,45.79,12.33,50,2.88,53.45A4,4,0,0,0,.25,57.21c0,4-.07,7.8-.13,11.51-.56,31.75-1,56.83,45.41,72.12a3.81,3.81,0,0,0,1.25.21,3.86,3.86,0,0,0,1.25-.21C94.44,125.55,94,100.47,93.44,68.72ZM46.06,86.5A11.85,11.85,0,1,1,57.91,74.65,11.85,11.85,0,0,1,46.06,86.5Z"/></g></g></svg>