<svg xmlns="http://www.w3.org/2000/svg" viewBox="0 0 20.9 24.65"><defs><style>.cls-1{fill:none;stroke:#555;stroke-linejoin:round;stroke-width:2px;}</style></defs><g id="레이어_2" data-name="레이어 2"><g id="Isolation_Mode" data-name="Isolation Mode"><circle class="cls-1" cx="10.45" cy="6.04" r="5.04"/><path class="cls-1" d="M19.9,22.42c0,.41,0,.82,0,1.23H1c0-.41,0-.82,0-1.23,0-.17,0-.33,0-.5a14.64,14.64,0,0,1,3.75-9.75L4.9,12l.09.07a8.06,8.06,0,0,0,5.24,2.11h.44a8.08,8.08,0,0,0,5.24-2.11L16,12l.14.15a14.64,14.64,0,0,1,3.75,9.75C19.9,22.09,19.9,22.25,19.9,22.42Z"/></g></g></svg>