<svg xmlns="http://www.w3.org/2000/svg" viewBox="0 0 300.14 163.55"><defs><style>.cls-1{fill:#f61;}.cls-2{fill:#e2814d;}</style></defs><g id="레이어_2" data-name="레이어 2"><g id="text_x"><path class="cls-1" d="M55.65,16l.43.43q-.44,4.29-.43,15l-.38.38H53l-.38-.43-.53-4.38a40.84,40.84,0,0,0-.59-4.31,2,2,0,0,0-.69-1.15,8.63,8.63,0,0,0-3.1-.59q-2.62-.24-5.86-.24h-9q-.39,10.77-.39,12.43V60.83l.1,9.29q0,5.38.26,7a4.26,4.26,0,0,0,.67,2.1,3.76,3.76,0,0,0,1.74.86,38.14,38.14,0,0,0,6.38.55l.34.28v2.38l-.34.38q-12.2-.37-13.62-.38t-13.58.38l-.38-.38V80.89l.38-.28a49.83,49.83,0,0,0,5.93-.48,4.28,4.28,0,0,0,1.95-.74,3.83,3.83,0,0,0,.84-1.93,39.26,39.26,0,0,0,.33-6.57l.09-10.06V33.05q0-.75-.38-12.43H16.1q-4.38,0-7.57.19c-2.13.13-3.36.45-3.69,1S4.19,24,3.91,26.91l-.48,4.38L3,31.72H.81l-.38-.38Q.32,19.85,0,16.38L.43,16q8.3.38,27.59.38Q47.69,16.33,55.65,16Z"/><path class="cls-1" d="M235,16q12,.38,15.29.38,4.48,0,10.06-.24c3.94-.12,6.36-.19,7.29-.19a37.22,37.22,0,0,1,11,1.38,14.61,14.61,0,0,1,7.21,5,14,14,0,0,1,2.86,8.87,18.27,18.27,0,0,1-2,8.29,19.9,19.9,0,0,1-5.57,6.81,22.95,22.95,0,0,1-14.87,5.24,36,36,0,0,1-6.57-.67L259,48l.43-.48a27.51,27.51,0,0,0,5.81.81,13,13,0,0,0,10-4.12A15,15,0,0,0,279,33.63q0-6.48-3.93-10.34T263.2,19.43a32.21,32.21,0,0,0-9.53,1.62q-.43,3.66-.43,17.72V60.83l0,9.29a64.58,64.58,0,0,0,.28,7,4.5,4.5,0,0,0,.69,2.1,3.67,3.67,0,0,0,1.74.88,37.85,37.85,0,0,0,6.34.55l.38.28v2.38l-.38.38q-12.15-.37-13.67-.38T235,83.65l-.38-.38V80.89l.38-.28a50.43,50.43,0,0,0,5.91-.48,4.34,4.34,0,0,0,2-.74,3.61,3.61,0,0,0,.81-1.93,42.93,42.93,0,0,0,.36-6.57l0-10.06V38.77l-.1-9.29q0-5.43-.26-7a4.33,4.33,0,0,0-.66-2.1,3.59,3.59,0,0,0-1.74-.86A41.85,41.85,0,0,0,235,19l-.38-.33V16.28Z"/><path class="cls-1" d="M33.36,163.55a37.56,37.56,0,0,1-12.51-2A26,26,0,0,1,4.61,145.72a38.1,38.1,0,0,1-2.27-13.67A37.69,37.69,0,0,1,4.51,119a27.9,27.9,0,0,1,6.28-10.08,26.57,26.57,0,0,1,9.82-6.25,36,36,0,0,1,12.79-2.2,49.93,49.93,0,0,1,6.92.43A47.39,47.39,0,0,1,46,102a42.59,42.59,0,0,1,5,1.73c1.48.64,2.78,1.24,3.9,1.78v14.73h-1.8c-.76-.65-1.72-1.42-2.87-2.31a38,38,0,0,0-3.94-2.64,26.83,26.83,0,0,0-4.86-2.19,17.06,17.06,0,0,0-5.59-.9,19.08,19.08,0,0,0-6.29,1,15.24,15.24,0,0,0-5.5,3.44,16.84,16.84,0,0,0-3.9,6.15,25.52,25.52,0,0,0-1.49,9.29,24.72,24.72,0,0,0,1.61,9.53,16.51,16.51,0,0,0,4.06,6,14.81,14.81,0,0,0,5.55,3.2,20.08,20.08,0,0,0,6,1,19.21,19.21,0,0,0,5.65-.85,21.81,21.81,0,0,0,5.17-2.32,33.88,33.88,0,0,0,3.71-2.51c1.14-.9,2.08-1.67,2.82-2.32h1.63v14.53c-1.53.68-3,1.32-4.37,1.92a36.3,36.3,0,0,1-4.37,1.55,52.59,52.59,0,0,1-5.59,1.3A44.5,44.5,0,0,1,33.36,163.55Z"/><path class="cls-1" d="M110.21,162.37H66.38V101.6H82.05v49h28.16Z"/><path class="cls-1" d="M163.59,162.37h-44V101.6h44v11.76H135.22v10.48h26.33V135.6H135.22v15h28.37Z"/><path class="cls-1" d="M232.88,162.37H216.7l-4.23-12.28H190l-4.23,12.28H170L192.4,101.6h18ZM208.7,138.94l-7.48-21.77-7.47,21.77Z"/><path class="cls-1" d="M300.14,162.37H281l-16.53-22.28h-7.26v22.28H241.62V101.6H267.9a61.37,61.37,0,0,1,9.26.61,20.05,20.05,0,0,1,7.27,2.66,15.82,15.82,0,0,1,5.44,5.28,15.14,15.14,0,0,1,2,8.14q0,6.74-3.12,11a23.47,23.47,0,0,1-8.91,7.06Zm-24.45-42.16a7.71,7.71,0,0,0-.94-3.92,6.33,6.33,0,0,0-3.22-2.57,11.87,11.87,0,0,0-3.71-.79c-1.42-.1-3.06-.15-4.94-.15h-5.67v16.37H262a44.2,44.2,0,0,0,6.29-.37,9,9,0,0,0,4.24-1.67,8.18,8.18,0,0,0,2.39-2.8A9.38,9.38,0,0,0,275.69,120.21Z"/><path class="cls-2" d="M145.05,85.68a35.54,35.54,0,0,1-19.9-6.06,1.19,1.19,0,1,1,1.32-2A33.32,33.32,0,0,0,171.72,30a33.58,33.58,0,0,0-16.86-11.88,1.19,1.19,0,1,1,.7-2.27,35.63,35.63,0,0,1,18.06,12.72,35.7,35.7,0,0,1-28.57,57.1Z"/><path class="cls-2" d="M120.83,75.75a1.16,1.16,0,0,1-.83-.34,35.68,35.68,0,0,1-3.46-46.91,35.71,35.71,0,0,1,18.21-12.71,1.19,1.19,0,1,1,.68,2.28,33.54,33.54,0,0,0-17,11.86,33.28,33.28,0,0,0,3.23,43.79,1.19,1.19,0,0,1-.84,2Z"/><path class="cls-2" d="M145.05,79.56A29.46,29.46,0,0,1,129.28,75a1.19,1.19,0,0,1,1.27-2,27.21,27.21,0,1,0,19.13-49.83,1.19,1.19,0,1,1,.41-2.34,29.58,29.58,0,0,1-5,58.73Z"/><path class="cls-2" d="M124.76,71a1.17,1.17,0,0,1-.85-.36,29.59,29.59,0,0,1,16-49.83,1.19,1.19,0,1,1,.41,2.34A27.21,27.21,0,0,0,125.61,69a1.19,1.19,0,0,1,0,1.68A1.16,1.16,0,0,1,124.76,71Z"/><path class="cls-2" d="M145.05,27.66A2.2,2.2,0,0,1,143.5,27L128,11.55l0,0a1.54,1.54,0,0,1-.17-.19l0,0a1.14,1.14,0,0,1-.15-.23v0l-.09-.17,0-.1s0-.07,0-.11,0-.1,0-.15l0-.16c0-.05,0-.1,0-.15h0a.76.76,0,0,1,0-.15l1.19,0h-1.19a.66.66,0,0,1,0-.14c0-.07,0-.12,0-.17l0-.15s0-.1,0-.15,0-.08,0-.12l0-.09.09-.18V9h0a1.28,1.28,0,0,1,.15-.25l0,0,.17-.19,0,0L135.81.68A2.17,2.17,0,0,1,137.35,0h15.39a2.2,2.2,0,0,1,1.55.64L162,8.4a2.23,2.23,0,0,1,.7,1.6,2.19,2.19,0,0,1-.6,1.5l0,0,0,0,0,0L146.59,27A2.17,2.17,0,0,1,145.05,27.66ZM129.84,10l15.21,15.2L160.25,10l-7.59-7.58H137.43Z"/><path class="cls-2" d="M161.32,11.26H128.58a1.19,1.19,0,1,1,0-2.37h32.74a1.19,1.19,0,1,1,0,2.37Z"/><path class="cls-2" d="M145.05,27.66a1.18,1.18,0,0,1-1.12-.79L138,10.49a1.22,1.22,0,0,1,0-.8l3.19-8.9a1.19,1.19,0,1,1,2.24.8l-3,8.5,5.76,16a1.17,1.17,0,0,1-.71,1.52A1.12,1.12,0,0,1,145.05,27.66Z"/><path class="cls-2" d="M145.33,27.66a1.18,1.18,0,0,1-.41-.07,1.19,1.19,0,0,1-.71-1.52l5.76-16-3-8.5a1.18,1.18,0,1,1,2.23-.8l3.19,8.9a1.22,1.22,0,0,1,0,.8l-5.91,16.38A1.18,1.18,0,0,1,145.33,27.66Z"/></g></g></svg>